G04*
G04 #@! TF.GenerationSoftware,Altium Limited,Altium Designer,21.3.2 (30)*
G04*
G04 Layer_Physical_Order=2*
G04 Layer_Color=16711680*
%FSTAX24Y24*%
%MOIN*%
G70*
G04*
G04 #@! TF.SameCoordinates,A225907D-E06C-499E-90B6-DC43991B6CC8*
G04*
G04*
G04 #@! TF.FilePolarity,Positive*
G04*
G01*
G75*
%ADD24O,0.0472X0.0984*%
%ADD25R,0.0472X0.0984*%
%ADD26C,0.0827*%
%ADD27R,0.0827X0.0827*%
%ADD28C,0.0591*%
%ADD29R,0.0630X0.0630*%
%ADD30C,0.0630*%
%ADD31C,0.2165*%
%ADD32C,0.0600*%
%ADD33R,0.0600X0.0600*%
%ADD34O,0.0591X0.0512*%
%ADD35R,0.0591X0.0512*%
%ADD36C,0.0472*%
%ADD37C,0.0197*%
G36*
X047757Y04969D02*
X0477Y049661D01*
X047542Y049546D01*
X047404Y049408D01*
X047289Y04925D01*
X047201Y049076D01*
X04714Y04889D01*
X04711Y048698D01*
Y048502D01*
X04714Y04831D01*
X047201Y048124D01*
X047289Y04795D01*
X047404Y047792D01*
X047542Y047654D01*
X0477Y047539D01*
X047874Y047451D01*
X04806Y04739D01*
X048252Y04736D01*
X048448D01*
X04864Y04739D01*
X048826Y047451D01*
X049Y047539D01*
X049158Y047654D01*
X049296Y047792D01*
X049411Y04795D01*
X04944Y048007D01*
X049488Y047996D01*
X049488Y028444D01*
X049438Y028423D01*
X047081Y030781D01*
X046999Y030844D01*
X046903Y030884D01*
X0468Y030897D01*
X0339D01*
X033797Y030884D01*
X033701Y030844D01*
X033619Y030781D01*
X028819Y025981D01*
X028756Y025899D01*
X028716Y025803D01*
X028703Y0257D01*
Y02543D01*
X028657Y025411D01*
X023847Y03022D01*
Y032273D01*
X023876Y032323D01*
X023907Y03244D01*
Y03256D01*
X023876Y032677D01*
X023816Y032781D01*
X023731Y032866D01*
X023686Y032892D01*
X0237Y032942D01*
X03045D01*
X030517Y032951D01*
X030579Y032976D01*
X030633Y033017D01*
X031114Y033499D01*
X031203Y033511D01*
X031299Y03355D01*
X031381Y033613D01*
X031444Y033696D01*
X031484Y033791D01*
X031497Y033894D01*
Y034406D01*
X031484Y034509D01*
X031444Y034604D01*
X031381Y034687D01*
X031299Y03475D01*
X031203Y034789D01*
X0311Y034803D01*
X030997Y034789D01*
X030901Y03475D01*
X030819Y034687D01*
X030756Y034604D01*
X030716Y034509D01*
X030703Y034406D01*
Y033894D01*
X030712Y033827D01*
X030343Y033458D01*
X029188D01*
X029184Y033508D01*
X029203Y033511D01*
X029299Y03355D01*
X029381Y033613D01*
X029444Y033696D01*
X029484Y033791D01*
X029497Y033894D01*
Y034406D01*
Y0346D01*
X029484Y034703D01*
X029444Y034799D01*
X029381Y034881D01*
X027446Y036816D01*
X027363Y036879D01*
X027268Y036919D01*
X027165Y036932D01*
X02221D01*
X022107Y036919D01*
X022012Y036879D01*
X021929Y036816D01*
X018563Y033449D01*
X015005Y037006D01*
X014923Y037069D01*
X014827Y037109D01*
X014782Y037115D01*
X014781Y037116D01*
X014677Y037176D01*
X01456Y037207D01*
X01444D01*
X014323Y037176D01*
X014219Y037116D01*
X014134Y037031D01*
X014074Y036927D01*
X014043Y03681D01*
Y03669D01*
X014074Y036573D01*
X014134Y036469D01*
X014219Y036384D01*
X014323Y036324D01*
X01444Y036293D01*
X01456D01*
X014588Y0363D01*
X014654Y036234D01*
X014629Y036189D01*
X01456Y036207D01*
X01444D01*
X014323Y036176D01*
X014219Y036116D01*
X014134Y036031D01*
X014074Y035927D01*
X014043Y03581D01*
Y03569D01*
X014074Y035573D01*
X014134Y035469D01*
X014219Y035384D01*
X014323Y035324D01*
X01444Y035293D01*
X01456D01*
X014677Y035324D01*
X014781Y035384D01*
X014866Y035469D01*
X014926Y035573D01*
X014957Y03569D01*
Y03581D01*
X014939Y035879D01*
X014984Y035904D01*
X01807Y032819D01*
X018065Y032787D01*
Y031954D01*
X018079Y031851D01*
X018119Y031756D01*
X018182Y031673D01*
X019253Y030602D01*
Y030122D01*
X019178D01*
Y029178D01*
X020122D01*
Y030122D01*
X020047D01*
Y030767D01*
X020034Y030869D01*
X019994Y030965D01*
X019931Y031047D01*
X01886Y032119D01*
Y032623D01*
X022375Y036138D01*
X027D01*
X028703Y034436D01*
Y03415D01*
Y033894D01*
X028716Y033791D01*
X028756Y033696D01*
X028819Y033613D01*
X028901Y03355D01*
X028997Y033511D01*
X029016Y033508D01*
X029012Y033458D01*
X02315D01*
X023083Y033449D01*
X023021Y033424D01*
X022967Y033383D01*
X022536Y032951D01*
X02251Y032957D01*
X02239D01*
X022273Y032926D01*
X022169Y032866D01*
X022084Y032781D01*
X022024Y032677D01*
X021993Y03256D01*
Y03244D01*
X022024Y032323D01*
X022084Y032219D01*
X022169Y032134D01*
X022273Y032074D01*
X02239Y032043D01*
X02251D01*
X022627Y032074D01*
X022731Y032134D01*
X022816Y032219D01*
X022876Y032323D01*
X022907Y03244D01*
Y03256D01*
X022901Y032586D01*
X022965Y03265D01*
X02301Y032624D01*
X022993Y03256D01*
Y03244D01*
X023024Y032323D01*
X023053Y032273D01*
Y030056D01*
Y021275D01*
X022741Y020963D01*
X022397D01*
Y020137D01*
X023303D01*
Y020402D01*
X023731Y02083D01*
X023794Y020912D01*
X023834Y021008D01*
X023847Y021111D01*
Y029032D01*
X023893Y029051D01*
X028703Y024241D01*
Y023894D01*
Y022464D01*
X026922Y020684D01*
X026872Y020698D01*
X02687Y020702D01*
X026895Y020798D01*
Y0208D01*
X02655D01*
Y020455D01*
X026552D01*
X026648Y02048D01*
X026652Y020478D01*
X026666Y020428D01*
X026541Y020303D01*
X02644D01*
X026325Y020272D01*
X026222Y020212D01*
X026138Y020128D01*
X026078Y020025D01*
X026047Y01991D01*
Y01979D01*
X026078Y019675D01*
X026138Y019572D01*
X026222Y019488D01*
X026325Y019428D01*
X02644Y019397D01*
X02656D01*
X026675Y019428D01*
X026778Y019488D01*
X026782Y019492D01*
X026871Y019529D01*
X026953Y019592D01*
X029381Y022019D01*
X029444Y022101D01*
X029484Y022197D01*
X029497Y0223D01*
Y02415D01*
Y024406D01*
Y025536D01*
X034064Y030103D01*
X046636D01*
X048803Y027936D01*
Y026464D01*
X047792Y025454D01*
X047747Y02548D01*
X047765Y025545D01*
Y02555D01*
X0474D01*
Y025185D01*
X047405D01*
X04747Y025203D01*
X047496Y025158D01*
X047412Y025074D01*
X047403Y025072D01*
X046878D01*
Y024689D01*
X045369Y023181D01*
X045306Y023099D01*
X045266Y023003D01*
X045253Y0229D01*
Y017664D01*
X043236Y015647D01*
X041457D01*
X041382Y01569D01*
X041262Y015722D01*
X041138D01*
X041018Y01569D01*
X040943Y015647D01*
X039564D01*
X036647Y018564D01*
Y020773D01*
X036676Y020823D01*
X036707Y02094D01*
Y02106D01*
X036676Y021177D01*
X036616Y021281D01*
X036531Y021366D01*
X036427Y021426D01*
X03631Y021457D01*
X03619D01*
X036073Y021426D01*
X035969Y021366D01*
X035884Y021281D01*
X035824Y021177D01*
X035793Y02106D01*
Y02094D01*
X035824Y020823D01*
X035853Y020773D01*
Y0184D01*
X035866Y018297D01*
X035906Y018201D01*
X035969Y018119D01*
X039119Y014969D01*
X039201Y014906D01*
X039297Y014866D01*
X0394Y014853D01*
X040943D01*
X041018Y01481D01*
X041138Y014778D01*
X041262D01*
X041382Y01481D01*
X041457Y014853D01*
X0434D01*
X043503Y014866D01*
X043599Y014906D01*
X043681Y014969D01*
X045931Y017219D01*
X045994Y017301D01*
X046034Y017397D01*
X046047Y0175D01*
Y022736D01*
X047439Y024128D01*
X047822D01*
Y024369D01*
X04786Y024398D01*
X049438Y025977D01*
X049488Y025956D01*
X049488Y014754D01*
X04944Y014743D01*
X049411Y0148D01*
X049296Y014958D01*
X049158Y015096D01*
X049Y015211D01*
X048826Y015299D01*
X04864Y01536D01*
X048448Y01539D01*
X048252D01*
X04806Y01536D01*
X047874Y015299D01*
X0477Y015211D01*
X047542Y015096D01*
X047404Y014958D01*
X047289Y0148D01*
X047201Y014626D01*
X04714Y01444D01*
X04711Y014248D01*
Y014052D01*
X04714Y01386D01*
X047201Y013674D01*
X047289Y0135D01*
X047404Y013342D01*
X047542Y013204D01*
X0477Y013089D01*
X047757Y01306D01*
X047746Y013012D01*
X013204D01*
X013193Y01306D01*
X01325Y013089D01*
X013408Y013204D01*
X013546Y013342D01*
X013661Y0135D01*
X013749Y013674D01*
X01381Y01386D01*
X01384Y014052D01*
Y014248D01*
X01381Y01444D01*
X013749Y014626D01*
X013661Y0148D01*
X013546Y014958D01*
X013408Y015096D01*
X01325Y015211D01*
X013076Y015299D01*
X01289Y01536D01*
X012698Y01539D01*
X012502D01*
X01231Y01536D01*
X012124Y015299D01*
X01195Y015211D01*
X011792Y015096D01*
X011654Y014958D01*
X011539Y0148D01*
X01151Y014743D01*
X011462Y014754D01*
Y048187D01*
X011512Y048194D01*
X011551Y048074D01*
X011639Y0479D01*
X011754Y047742D01*
X011892Y047604D01*
X01205Y047489D01*
X012224Y047401D01*
X01241Y04734D01*
X012602Y04731D01*
X012798D01*
X01299Y04734D01*
X013176Y047401D01*
X01335Y047489D01*
X013508Y047604D01*
X013646Y047742D01*
X013761Y0479D01*
X013849Y048074D01*
X01391Y04826D01*
X01394Y048452D01*
Y048648D01*
X01391Y04884D01*
X013849Y049026D01*
X013761Y0492D01*
X013646Y049358D01*
X013508Y049496D01*
X01335Y049611D01*
X013197Y049688D01*
X013209Y049738D01*
X047746D01*
X047757Y04969D01*
D02*
G37*
%LPC*%
G36*
X03471Y047857D02*
X03459D01*
X034473Y047826D01*
X034369Y047766D01*
X034284Y047681D01*
X034224Y047577D01*
X034193Y04746D01*
Y04734D01*
X034224Y047223D01*
X034284Y047119D01*
X034369Y047034D01*
X034473Y046974D01*
X03459Y046943D01*
X03471D01*
X034827Y046974D01*
X034931Y047034D01*
X035016Y047119D01*
X035076Y047223D01*
X035107Y04734D01*
Y04746D01*
X035076Y047577D01*
X035016Y047681D01*
X034931Y047766D01*
X034827Y047826D01*
X03471Y047857D01*
D02*
G37*
G36*
X03371D02*
X03359D01*
X033473Y047826D01*
X033369Y047766D01*
X033284Y047681D01*
X033224Y047577D01*
X033193Y04746D01*
Y04734D01*
X033224Y047223D01*
X033284Y047119D01*
X033369Y047034D01*
X033473Y046974D01*
X03359Y046943D01*
X03371D01*
X033827Y046974D01*
X033931Y047034D01*
X034016Y047119D01*
X034076Y047223D01*
X034107Y04734D01*
Y04746D01*
X034076Y047577D01*
X034016Y047681D01*
X033931Y047766D01*
X033827Y047826D01*
X03371Y047857D01*
D02*
G37*
G36*
X03271D02*
X03259D01*
X032473Y047826D01*
X032369Y047766D01*
X032284Y047681D01*
X032224Y047577D01*
X032193Y04746D01*
Y04734D01*
X032224Y047223D01*
X032284Y047119D01*
X032369Y047034D01*
X032473Y046974D01*
X03259Y046943D01*
X03271D01*
X032827Y046974D01*
X032931Y047034D01*
X033016Y047119D01*
X033076Y047223D01*
X033107Y04734D01*
Y04746D01*
X033076Y047577D01*
X033016Y047681D01*
X032931Y047766D01*
X032827Y047826D01*
X03271Y047857D01*
D02*
G37*
G36*
X03171D02*
X03159D01*
X031473Y047826D01*
X031369Y047766D01*
X031284Y047681D01*
X031224Y047577D01*
X031193Y04746D01*
Y04734D01*
X031224Y047223D01*
X031284Y047119D01*
X031369Y047034D01*
X031473Y046974D01*
X03159Y046943D01*
X03171D01*
X031827Y046974D01*
X031931Y047034D01*
X032016Y047119D01*
X032076Y047223D01*
X032107Y04734D01*
Y04746D01*
X032076Y047577D01*
X032016Y047681D01*
X031931Y047766D01*
X031827Y047826D01*
X03171Y047857D01*
D02*
G37*
G36*
X03071D02*
X03059D01*
X030473Y047826D01*
X030369Y047766D01*
X030284Y047681D01*
X030224Y047577D01*
X030193Y04746D01*
Y04734D01*
X030224Y047223D01*
X030284Y047119D01*
X030369Y047034D01*
X030473Y046974D01*
X03059Y046943D01*
X03071D01*
X030827Y046974D01*
X030931Y047034D01*
X031016Y047119D01*
X031076Y047223D01*
X031107Y04734D01*
Y04746D01*
X031076Y047577D01*
X031016Y047681D01*
X030931Y047766D01*
X030827Y047826D01*
X03071Y047857D01*
D02*
G37*
G36*
X030107D02*
X029193D01*
Y046943D01*
X030107D01*
Y047857D01*
D02*
G37*
G36*
X021818Y044113D02*
X0218D01*
Y04365D01*
X022263D01*
Y043668D01*
X022228Y043798D01*
X022161Y043915D01*
X022065Y044011D01*
X021948Y044078D01*
X021818Y044113D01*
D02*
G37*
G36*
X0217D02*
X021682D01*
X021552Y044078D01*
X021435Y044011D01*
X021339Y043915D01*
X021272Y043798D01*
X021237Y043668D01*
Y04365D01*
X0217D01*
Y044113D01*
D02*
G37*
G36*
X022263Y04355D02*
X0218D01*
Y043087D01*
X021818D01*
X021948Y043122D01*
X022065Y043189D01*
X022161Y043285D01*
X022228Y043402D01*
X022263Y043532D01*
Y04355D01*
D02*
G37*
G36*
X0217D02*
X021237D01*
Y043532D01*
X021272Y043402D01*
X021339Y043285D01*
X021435Y043189D01*
X021552Y043122D01*
X021682Y043087D01*
X0217D01*
Y04355D01*
D02*
G37*
G36*
X023402Y040745D02*
X0234D01*
Y0404D01*
X023745D01*
Y040402D01*
X023718Y040503D01*
X023666Y040593D01*
X023593Y040666D01*
X023503Y040718D01*
X023402Y040745D01*
D02*
G37*
G36*
X0233D02*
X023298D01*
X023197Y040718D01*
X023107Y040666D01*
X023034Y040593D01*
X022982Y040503D01*
X022955Y040402D01*
Y0404D01*
X0233D01*
Y040745D01*
D02*
G37*
G36*
X023745Y0403D02*
X0234D01*
Y039955D01*
X023402D01*
X023503Y039982D01*
X023593Y040034D01*
X023666Y040107D01*
X023718Y040197D01*
X023745Y040298D01*
Y0403D01*
D02*
G37*
G36*
X020321Y044171D02*
X019179D01*
Y04382D01*
X019173D01*
X01907Y043806D01*
X018974Y043767D01*
X018892Y043704D01*
X01438Y039191D01*
X014323Y039176D01*
X014219Y039116D01*
X014134Y039031D01*
X014074Y038927D01*
X014043Y03881D01*
Y03869D01*
X014074Y038573D01*
X014134Y038469D01*
X014219Y038384D01*
X014323Y038324D01*
X01444Y038293D01*
X01456D01*
X014677Y038324D01*
X014781Y038384D01*
X014866Y038469D01*
X014926Y038573D01*
X014941Y03863D01*
X019337Y043026D01*
X01953D01*
Y042773D01*
X019544Y04267D01*
X019583Y042574D01*
X019646Y042492D01*
X021915Y040223D01*
X021928Y040175D01*
X021988Y040072D01*
X022027Y040033D01*
X022029Y040029D01*
X022092Y039947D01*
X023119Y038919D01*
X023201Y038856D01*
X023297Y038816D01*
X0234Y038803D01*
X030201D01*
X03025Y0388D01*
X03025Y038753D01*
Y03845D01*
X03065D01*
X03105D01*
X03105Y0388D01*
X031099Y038803D01*
X031337D01*
X031356Y038753D01*
X031284Y038681D01*
X031224Y038577D01*
X031193Y03846D01*
Y03834D01*
X031224Y038223D01*
X031284Y038119D01*
X031369Y038034D01*
X031392Y038021D01*
Y036856D01*
X031401Y036789D01*
X031426Y036727D01*
X031467Y036673D01*
X033707Y034434D01*
X033703Y034406D01*
Y033894D01*
X033716Y033791D01*
X033756Y033696D01*
X033819Y033613D01*
X033901Y03355D01*
X033997Y033511D01*
X0341Y033497D01*
X034203Y033511D01*
X034299Y03355D01*
X034381Y033613D01*
X034444Y033696D01*
X034484Y033791D01*
X034497Y033894D01*
Y034406D01*
X034484Y034509D01*
X034444Y034604D01*
X034381Y034687D01*
X034299Y03475D01*
X034203Y034789D01*
X0341Y034803D01*
X034072Y034799D01*
X031908Y036963D01*
Y038021D01*
X031931Y038034D01*
X032016Y038119D01*
X032076Y038223D01*
X032107Y03834D01*
Y03846D01*
X032076Y038577D01*
X032016Y038681D01*
X031944Y038753D01*
X031963Y038803D01*
X032337D01*
X032356Y038753D01*
X032284Y038681D01*
X032224Y038577D01*
X032193Y03846D01*
Y03834D01*
X032224Y038223D01*
X032284Y038119D01*
X032369Y038034D01*
X032392Y038021D01*
Y036856D01*
X032401Y036789D01*
X032426Y036727D01*
X032467Y036673D01*
X034707Y034434D01*
X034703Y034406D01*
Y033894D01*
X034716Y033791D01*
X034756Y033696D01*
X034819Y033613D01*
X034901Y03355D01*
X034997Y033511D01*
X0351Y033497D01*
X035203Y033511D01*
X035299Y03355D01*
X035381Y033613D01*
X035444Y033696D01*
X035484Y033791D01*
X035497Y033894D01*
Y034406D01*
X035484Y034509D01*
X035444Y034604D01*
X035381Y034687D01*
X035299Y03475D01*
X035203Y034789D01*
X0351Y034803D01*
X035072Y034799D01*
X032908Y036963D01*
Y038021D01*
X032931Y038034D01*
X033016Y038119D01*
X033076Y038223D01*
X033107Y03834D01*
Y03846D01*
X033076Y038577D01*
X033016Y038681D01*
X032944Y038753D01*
X032963Y038803D01*
X033337D01*
X033356Y038753D01*
X033284Y038681D01*
X033224Y038577D01*
X033193Y03846D01*
Y03834D01*
X033224Y038223D01*
X033284Y038119D01*
X033369Y038034D01*
X033473Y037974D01*
X03359Y037943D01*
X03371D01*
X033827Y037974D01*
X033931Y038034D01*
X034016Y038119D01*
X034076Y038223D01*
X034107Y03834D01*
Y03841D01*
X034157Y038431D01*
X034193Y038396D01*
Y03834D01*
X034224Y038223D01*
X034284Y038119D01*
X034369Y038034D01*
X034473Y037974D01*
X03459Y037943D01*
X03471D01*
X034827Y037974D01*
X034931Y038034D01*
X035016Y038119D01*
X035076Y038223D01*
X035107Y03834D01*
Y03846D01*
X035076Y038577D01*
X035016Y038681D01*
X034955Y038742D01*
X034906Y038805D01*
X034231Y039481D01*
X034149Y039544D01*
X034053Y039584D01*
X03395Y039597D01*
X023564D01*
X023244Y039917D01*
X02327Y039962D01*
X023298Y039955D01*
X0233D01*
Y0403D01*
X022955D01*
Y040298D01*
X022962Y04027D01*
X022917Y040244D01*
X022803Y040359D01*
Y04041D01*
X022772Y040525D01*
X022712Y040628D01*
X022628Y040712D01*
X022525Y040772D01*
X022477Y040785D01*
X020324Y042937D01*
Y043423D01*
X020321Y043449D01*
Y044171D01*
D02*
G37*
G36*
X03105Y03835D02*
X0307D01*
Y038D01*
X03105D01*
Y03835D01*
D02*
G37*
G36*
X0306D02*
X03025D01*
Y038D01*
X0306D01*
Y03835D01*
D02*
G37*
G36*
X014553Y03815D02*
X01455D01*
Y0378D01*
X0149D01*
Y037803D01*
X014873Y037904D01*
X01482Y037996D01*
X014746Y03807D01*
X014654Y038123D01*
X014553Y03815D01*
D02*
G37*
G36*
X01445D02*
X014447D01*
X014346Y038123D01*
X014254Y03807D01*
X01418Y037996D01*
X014127Y037904D01*
X0141Y037803D01*
Y0378D01*
X01445D01*
Y03815D01*
D02*
G37*
G36*
X0149Y0377D02*
X01455D01*
Y03735D01*
X014553D01*
X014654Y037377D01*
X014746Y03743D01*
X01482Y037504D01*
X014873Y037596D01*
X0149Y037697D01*
Y0377D01*
D02*
G37*
G36*
X01445D02*
X0141D01*
Y037697D01*
X014127Y037596D01*
X01418Y037504D01*
X014254Y03743D01*
X014346Y037377D01*
X014447Y03735D01*
X01445D01*
Y0377D01*
D02*
G37*
G36*
X03015Y034738D02*
Y0342D01*
X030439D01*
Y034406D01*
X030428Y034494D01*
X030394Y034575D01*
X03034Y034646D01*
X03027Y0347D01*
X030188Y034733D01*
X03015Y034738D01*
D02*
G37*
G36*
X03005D02*
X030012Y034733D01*
X02993Y0347D01*
X02986Y034646D01*
X029806Y034575D01*
X029772Y034494D01*
X029761Y034406D01*
Y0342D01*
X03005D01*
Y034738D01*
D02*
G37*
G36*
X030439Y0341D02*
X03015D01*
Y033562D01*
X030188Y033567D01*
X03027Y0336D01*
X03034Y033654D01*
X030394Y033725D01*
X030428Y033806D01*
X030439Y033894D01*
Y0341D01*
D02*
G37*
G36*
X03005D02*
X029761D01*
Y033894D01*
X029772Y033806D01*
X029806Y033725D01*
X02986Y033654D01*
X02993Y0336D01*
X030012Y033567D01*
X03005Y033562D01*
Y0341D01*
D02*
G37*
G36*
X043494Y0348D02*
X042706D01*
Y0335D01*
X043494D01*
Y0348D01*
D02*
G37*
G36*
X0421Y034803D02*
X041997Y034789D01*
X041901Y03475D01*
X041819Y034687D01*
X041756Y034604D01*
X041716Y034509D01*
X041703Y034406D01*
Y033894D01*
X041716Y033791D01*
X041756Y033696D01*
X041819Y033613D01*
X041901Y03355D01*
X041997Y033511D01*
X0421Y033497D01*
X042203Y033511D01*
X042299Y03355D01*
X042381Y033613D01*
X042444Y033696D01*
X042484Y033791D01*
X042497Y033894D01*
Y034406D01*
X042484Y034509D01*
X042444Y034604D01*
X042381Y034687D01*
X042299Y03475D01*
X042203Y034789D01*
X0421Y034803D01*
D02*
G37*
G36*
X0411D02*
X040997Y034789D01*
X040901Y03475D01*
X040819Y034687D01*
X040756Y034604D01*
X040716Y034509D01*
X040703Y034406D01*
Y033894D01*
X040716Y033791D01*
X040756Y033696D01*
X040819Y033613D01*
X040901Y03355D01*
X040997Y033511D01*
X0411Y033497D01*
X041203Y033511D01*
X041299Y03355D01*
X041381Y033613D01*
X041444Y033696D01*
X041484Y033791D01*
X041497Y033894D01*
Y034406D01*
X041484Y034509D01*
X041444Y034604D01*
X041381Y034687D01*
X041299Y03475D01*
X041203Y034789D01*
X0411Y034803D01*
D02*
G37*
G36*
X0401D02*
X039997Y034789D01*
X039901Y03475D01*
X039819Y034687D01*
X039756Y034604D01*
X039716Y034509D01*
X039703Y034406D01*
Y033894D01*
X039716Y033791D01*
X039756Y033696D01*
X039819Y033613D01*
X039901Y03355D01*
X039997Y033511D01*
X0401Y033497D01*
X040203Y033511D01*
X040299Y03355D01*
X040381Y033613D01*
X040444Y033696D01*
X040484Y033791D01*
X040497Y033894D01*
Y034406D01*
X040484Y034509D01*
X040444Y034604D01*
X040381Y034687D01*
X040299Y03475D01*
X040203Y034789D01*
X0401Y034803D01*
D02*
G37*
G36*
X0391D02*
X038997Y034789D01*
X038901Y03475D01*
X038819Y034687D01*
X038756Y034604D01*
X038716Y034509D01*
X038703Y034406D01*
Y033894D01*
X038716Y033791D01*
X038756Y033696D01*
X038819Y033613D01*
X038901Y03355D01*
X038997Y033511D01*
X0391Y033497D01*
X039203Y033511D01*
X039299Y03355D01*
X039381Y033613D01*
X039444Y033696D01*
X039484Y033791D01*
X039497Y033894D01*
Y034406D01*
X039484Y034509D01*
X039444Y034604D01*
X039381Y034687D01*
X039299Y03475D01*
X039203Y034789D01*
X0391Y034803D01*
D02*
G37*
G36*
X0381D02*
X037997Y034789D01*
X037901Y03475D01*
X037819Y034687D01*
X037756Y034604D01*
X037716Y034509D01*
X037703Y034406D01*
Y033894D01*
X037716Y033791D01*
X037756Y033696D01*
X037819Y033613D01*
X037901Y03355D01*
X037997Y033511D01*
X0381Y033497D01*
X038203Y033511D01*
X038299Y03355D01*
X038381Y033613D01*
X038444Y033696D01*
X038484Y033791D01*
X038497Y033894D01*
Y034406D01*
X038484Y034509D01*
X038444Y034604D01*
X038381Y034687D01*
X038299Y03475D01*
X038203Y034789D01*
X0381Y034803D01*
D02*
G37*
G36*
X0371D02*
X036997Y034789D01*
X036901Y03475D01*
X036819Y034687D01*
X036756Y034604D01*
X036716Y034509D01*
X036703Y034406D01*
Y033894D01*
X036716Y033791D01*
X036756Y033696D01*
X036819Y033613D01*
X036901Y03355D01*
X036997Y033511D01*
X0371Y033497D01*
X037203Y033511D01*
X037299Y03355D01*
X037381Y033613D01*
X037444Y033696D01*
X037484Y033791D01*
X037497Y033894D01*
Y034406D01*
X037484Y034509D01*
X037444Y034604D01*
X037381Y034687D01*
X037299Y03475D01*
X037203Y034789D01*
X0371Y034803D01*
D02*
G37*
G36*
X0361D02*
X035997Y034789D01*
X035901Y03475D01*
X035819Y034687D01*
X035756Y034604D01*
X035716Y034509D01*
X035703Y034406D01*
Y033894D01*
X035716Y033791D01*
X035756Y033696D01*
X035819Y033613D01*
X035901Y03355D01*
X035997Y033511D01*
X0361Y033497D01*
X036203Y033511D01*
X036299Y03355D01*
X036381Y033613D01*
X036444Y033696D01*
X036484Y033791D01*
X036497Y033894D01*
Y034406D01*
X036484Y034509D01*
X036444Y034604D01*
X036381Y034687D01*
X036299Y03475D01*
X036203Y034789D01*
X0361Y034803D01*
D02*
G37*
G36*
X0331D02*
X032997Y034789D01*
X032901Y03475D01*
X032819Y034687D01*
X032756Y034604D01*
X032716Y034509D01*
X032703Y034406D01*
Y033894D01*
X032716Y033791D01*
X032756Y033696D01*
X032819Y033613D01*
X032901Y03355D01*
X032997Y033511D01*
X0331Y033497D01*
X033203Y033511D01*
X033299Y03355D01*
X033381Y033613D01*
X033444Y033696D01*
X033484Y033791D01*
X033497Y033894D01*
Y034406D01*
X033484Y034509D01*
X033444Y034604D01*
X033381Y034687D01*
X033299Y03475D01*
X033203Y034789D01*
X0331Y034803D01*
D02*
G37*
G36*
X0321D02*
X031997Y034789D01*
X031901Y03475D01*
X031819Y034687D01*
X031756Y034604D01*
X031716Y034509D01*
X031703Y034406D01*
Y033894D01*
X031716Y033791D01*
X031756Y033696D01*
X031819Y033613D01*
X031901Y03355D01*
X031997Y033511D01*
X0321Y033497D01*
X032203Y033511D01*
X032299Y03355D01*
X032381Y033613D01*
X032444Y033696D01*
X032484Y033791D01*
X032497Y033894D01*
Y034406D01*
X032484Y034509D01*
X032444Y034604D01*
X032381Y034687D01*
X032299Y03475D01*
X032203Y034789D01*
X0321Y034803D01*
D02*
G37*
G36*
X021503Y0329D02*
X0215D01*
Y03255D01*
X02185D01*
Y032553D01*
X021823Y032654D01*
X02177Y032746D01*
X021696Y03282D01*
X021604Y032873D01*
X021503Y0329D01*
D02*
G37*
G36*
X0214D02*
X021397D01*
X021296Y032873D01*
X021204Y03282D01*
X02113Y032746D01*
X021077Y032654D01*
X02105Y032553D01*
Y03255D01*
X0214D01*
Y0329D01*
D02*
G37*
G36*
X02185Y03245D02*
X0215D01*
Y0321D01*
X021503D01*
X021604Y032127D01*
X021696Y03218D01*
X02177Y032254D01*
X021823Y032346D01*
X02185Y032447D01*
Y03245D01*
D02*
G37*
G36*
X0214D02*
X02105D01*
Y032447D01*
X021077Y032346D01*
X02113Y032254D01*
X021204Y03218D01*
X021296Y032127D01*
X021397Y0321D01*
X0214D01*
Y03245D01*
D02*
G37*
G36*
X0176Y03195D02*
X01725D01*
Y0316D01*
X0176D01*
Y03195D01*
D02*
G37*
G36*
X01715D02*
X0168D01*
Y0316D01*
X01715D01*
Y03195D01*
D02*
G37*
G36*
X0176Y0315D02*
X01725D01*
Y03115D01*
X0176D01*
Y0315D01*
D02*
G37*
G36*
X01715D02*
X0168D01*
Y03115D01*
X01715D01*
Y0315D01*
D02*
G37*
G36*
X01726Y031007D02*
X01714D01*
X017023Y030976D01*
X016919Y030916D01*
X016834Y030831D01*
X016774Y030727D01*
X016743Y03061D01*
Y03049D01*
X016774Y030373D01*
X016834Y030269D01*
X016919Y030184D01*
X017023Y030124D01*
X01714Y030093D01*
X01726D01*
X017377Y030124D01*
X017481Y030184D01*
X017566Y030269D01*
X017626Y030373D01*
X017657Y03049D01*
Y03061D01*
X017626Y030727D01*
X017566Y030831D01*
X017481Y030916D01*
X017377Y030976D01*
X01726Y031007D01*
D02*
G37*
G36*
Y030007D02*
X01714D01*
X017023Y029976D01*
X016919Y029916D01*
X016834Y029831D01*
X016774Y029727D01*
X016743Y02961D01*
Y02949D01*
X016774Y029373D01*
X016834Y029269D01*
X016919Y029184D01*
X017023Y029124D01*
X01714Y029093D01*
X01726D01*
X017377Y029124D01*
X017481Y029184D01*
X017566Y029269D01*
X017626Y029373D01*
X017657Y02949D01*
Y02961D01*
X017626Y029727D01*
X017566Y029831D01*
X017481Y029916D01*
X017377Y029976D01*
X01726Y030007D01*
D02*
G37*
G36*
X019712Y029122D02*
X019588D01*
X019468Y02909D01*
X01936Y029028D01*
X019279Y028947D01*
X017427D01*
X017377Y028976D01*
X01726Y029007D01*
X01714D01*
X017023Y028976D01*
X016919Y028916D01*
X016834Y028831D01*
X016774Y028727D01*
X016743Y02861D01*
Y02849D01*
X016774Y028373D01*
X016834Y028269D01*
X016919Y028184D01*
X017023Y028124D01*
X01714Y028093D01*
X01726D01*
X017377Y028124D01*
X017427Y028153D01*
X019507D01*
X01961Y028166D01*
X019637Y028178D01*
X019712D01*
X019832Y02821D01*
X01994Y028272D01*
X020028Y02836D01*
X02009Y028468D01*
X020122Y028588D01*
Y028712D01*
X02009Y028832D01*
X020028Y02894D01*
X01994Y029028D01*
X019832Y02909D01*
X019712Y029122D01*
D02*
G37*
G36*
X047412Y028072D02*
X047288D01*
X047168Y02804D01*
X04706Y027978D01*
X046972Y02789D01*
X046954Y027858D01*
X04535D01*
X045283Y027849D01*
X045221Y027824D01*
X045167Y027783D01*
X042178Y024793D01*
X0421Y024803D01*
X041997Y024789D01*
X041901Y02475D01*
X041819Y024687D01*
X041756Y024604D01*
X041716Y024509D01*
X041703Y024406D01*
Y023894D01*
X041716Y023791D01*
X041756Y023696D01*
X041819Y023613D01*
X041901Y02355D01*
X041997Y023511D01*
X0421Y023497D01*
X042203Y023511D01*
X042299Y02355D01*
X042381Y023613D01*
X042444Y023696D01*
X042484Y023791D01*
X042497Y023894D01*
Y024382D01*
X04269Y024575D01*
X042732Y024546D01*
X042716Y024509D01*
X042703Y024406D01*
Y023894D01*
X042716Y023791D01*
X042756Y023696D01*
X042819Y023613D01*
X042901Y02355D01*
X042997Y023511D01*
X0431Y023497D01*
X043203Y023511D01*
X043299Y02355D01*
X043381Y023613D01*
X043444Y023696D01*
X043484Y023791D01*
X043497Y023894D01*
Y024406D01*
X043493Y024434D01*
X045401Y026342D01*
X046954D01*
X046972Y02631D01*
X04706Y026222D01*
X047168Y02616D01*
X047288Y026128D01*
X047412D01*
X047532Y02616D01*
X04764Y026222D01*
X047728Y02631D01*
X04779Y026418D01*
X047822Y026538D01*
Y026662D01*
X04779Y026782D01*
X047728Y02689D01*
X04764Y026978D01*
X047532Y02704D01*
X047412Y027072D01*
X047288D01*
X047168Y02704D01*
X04706Y026978D01*
X046972Y02689D01*
X046954Y026858D01*
X045294D01*
X045227Y026849D01*
X045165Y026824D01*
X045112Y026783D01*
X043128Y024799D01*
X0431Y024803D01*
X042997Y024789D01*
X04296Y024774D01*
X042931Y024816D01*
X045457Y027342D01*
X046954D01*
X046972Y02731D01*
X04706Y027222D01*
X047168Y02716D01*
X047288Y027128D01*
X047412D01*
X047532Y02716D01*
X04764Y027222D01*
X047728Y02731D01*
X04779Y027418D01*
X047822Y027538D01*
Y027662D01*
X04779Y027782D01*
X047728Y02789D01*
X04764Y027978D01*
X047532Y02804D01*
X047412Y028072D01*
D02*
G37*
G36*
X047405Y026015D02*
X0474D01*
Y02565D01*
X047765D01*
Y025655D01*
X047737Y02576D01*
X047682Y025855D01*
X047605Y025932D01*
X04751Y025987D01*
X047405Y026015D01*
D02*
G37*
G36*
X0473D02*
X047295D01*
X04719Y025987D01*
X047095Y025932D01*
X047018Y025855D01*
X046963Y02576D01*
X046935Y025655D01*
Y02565D01*
X0473D01*
Y026015D01*
D02*
G37*
G36*
Y02555D02*
X046935D01*
Y025545D01*
X046963Y02544D01*
X047018Y025345D01*
X047095Y025268D01*
X04719Y025213D01*
X047295Y025185D01*
X0473D01*
Y02555D01*
D02*
G37*
G36*
X03015Y024738D02*
Y0242D01*
X030439D01*
Y024406D01*
X030428Y024494D01*
X030394Y024575D01*
X03034Y024646D01*
X03027Y0247D01*
X030188Y024733D01*
X03015Y024738D01*
D02*
G37*
G36*
X03005D02*
X030012Y024733D01*
X02993Y0247D01*
X02986Y024646D01*
X029806Y024575D01*
X029772Y024494D01*
X029761Y024406D01*
Y0242D01*
X03005D01*
Y024738D01*
D02*
G37*
G36*
X0401Y024803D02*
X039997Y024789D01*
X039901Y02475D01*
X039819Y024687D01*
X039756Y024604D01*
X039716Y024509D01*
X039703Y024406D01*
Y023894D01*
X039716Y023791D01*
X039719Y023786D01*
X039676Y023757D01*
X039497Y023937D01*
Y024406D01*
X039484Y024509D01*
X039444Y024604D01*
X039381Y024687D01*
X039299Y02475D01*
X039203Y024789D01*
X0391Y024803D01*
X038997Y024789D01*
X038901Y02475D01*
X038819Y024687D01*
X038756Y024604D01*
X038716Y024509D01*
X038703Y024406D01*
Y023894D01*
X038716Y023791D01*
X038719Y023786D01*
X038676Y023757D01*
X038497Y023937D01*
Y024406D01*
X038484Y024509D01*
X038444Y024604D01*
X038381Y024687D01*
X038299Y02475D01*
X038203Y024789D01*
X0381Y024803D01*
X037997Y024789D01*
X037901Y02475D01*
X037819Y024687D01*
X037756Y024604D01*
X037716Y024509D01*
X037703Y024406D01*
Y023894D01*
X037716Y023791D01*
X037719Y023786D01*
X037676Y023757D01*
X037497Y023937D01*
Y024406D01*
X037484Y024509D01*
X037444Y024604D01*
X037381Y024687D01*
X037299Y02475D01*
X037203Y024789D01*
X0371Y024803D01*
X036997Y024789D01*
X036901Y02475D01*
X036819Y024687D01*
X036756Y024604D01*
X036716Y024509D01*
X036703Y024406D01*
Y023894D01*
X036716Y023791D01*
X036732Y023754D01*
X03669Y023725D01*
X036497Y023918D01*
Y024406D01*
X036484Y024509D01*
X036444Y024604D01*
X036381Y024687D01*
X036299Y02475D01*
X036203Y024789D01*
X0361Y024803D01*
X035997Y024789D01*
X035901Y02475D01*
X035819Y024687D01*
X035756Y024604D01*
X035716Y024509D01*
X035703Y024406D01*
Y023894D01*
X035708Y023859D01*
X03566Y023835D01*
X03553Y023966D01*
X035497Y023991D01*
Y024406D01*
X035484Y024509D01*
X035444Y024604D01*
X035381Y024687D01*
X035299Y02475D01*
X035203Y024789D01*
X0351Y024803D01*
X034997Y024789D01*
X034901Y02475D01*
X034819Y024687D01*
X034756Y024604D01*
X034716Y024509D01*
X034703Y024406D01*
Y023894D01*
X034716Y023791D01*
X034756Y023696D01*
X034819Y023613D01*
X034901Y02355D01*
X034997Y023511D01*
X0351Y023497D01*
X035203Y023511D01*
X03524Y023526D01*
X037242Y021524D01*
Y01995D01*
X037251Y019883D01*
X037276Y019821D01*
X037317Y019767D01*
X040737Y016348D01*
X040728Y016312D01*
Y016188D01*
X04076Y016068D01*
X040822Y01596D01*
X04091Y015872D01*
X041018Y01581D01*
X041138Y015778D01*
X041262D01*
X041382Y01581D01*
X04149Y015872D01*
X041578Y01596D01*
X04164Y016068D01*
X041672Y016188D01*
Y016312D01*
X04164Y016432D01*
X041578Y01654D01*
X04149Y016628D01*
X041382Y01669D01*
X041262Y016722D01*
X041138D01*
X041102Y016713D01*
X040968Y016847D01*
X040999Y016887D01*
X04104Y016863D01*
X041145Y016835D01*
X04115D01*
Y0172D01*
X040785D01*
Y017195D01*
X040813Y01709D01*
X040837Y017049D01*
X040797Y017018D01*
X037758Y020057D01*
Y02163D01*
X037749Y021697D01*
X037724Y02176D01*
X037683Y021813D01*
X036041Y023454D01*
X036065Y023502D01*
X0361Y023497D01*
X036178Y023507D01*
X040535Y01915D01*
X040588Y019109D01*
X04065Y019084D01*
X040717Y019075D01*
X040758D01*
X04076Y019068D01*
X040822Y01896D01*
X04091Y018872D01*
X041018Y01881D01*
X041138Y018778D01*
X041262D01*
X041382Y01881D01*
X04149Y018872D01*
X041578Y01896D01*
X04164Y019068D01*
X041672Y019188D01*
Y019312D01*
X04164Y019432D01*
X041578Y01954D01*
X04149Y019628D01*
X041382Y01969D01*
X041262Y019722D01*
X041138D01*
X041018Y01969D01*
X04091Y019628D01*
X040873Y019591D01*
X040824D01*
X036931Y023484D01*
X03696Y023526D01*
X036997Y023511D01*
X0371Y023497D01*
X037194Y023509D01*
X040592Y020111D01*
X040646Y02007D01*
X040708Y020045D01*
X040775Y020036D01*
X040778D01*
X040822Y01996D01*
X04091Y019872D01*
X041018Y01981D01*
X041138Y019778D01*
X041262D01*
X041382Y01981D01*
X04149Y019872D01*
X041578Y01996D01*
X04164Y020068D01*
X041672Y020188D01*
Y020312D01*
X04164Y020432D01*
X041578Y02054D01*
X04149Y020628D01*
X041382Y02069D01*
X041262Y020722D01*
X041138D01*
X041018Y02069D01*
X04091Y020628D01*
X040858Y020576D01*
X037963Y02347D01*
X037992Y023513D01*
X037997Y023511D01*
X0381Y023497D01*
X038194Y023509D01*
X040592Y021111D01*
X040646Y02107D01*
X040708Y021045D01*
X040775Y021036D01*
X040778D01*
X040822Y02096D01*
X04091Y020872D01*
X041018Y02081D01*
X041138Y020778D01*
X041262D01*
X041382Y02081D01*
X04149Y020872D01*
X041578Y02096D01*
X04164Y021068D01*
X041672Y021188D01*
Y021312D01*
X04164Y021432D01*
X041578Y02154D01*
X04149Y021628D01*
X041382Y02169D01*
X041262Y021722D01*
X041138D01*
X041018Y02169D01*
X04091Y021628D01*
X040858Y021576D01*
X038963Y02347D01*
X038992Y023513D01*
X038997Y023511D01*
X0391Y023497D01*
X039194Y023509D01*
X040523Y022181D01*
X040576Y02214D01*
X040638Y022114D01*
X040705Y022105D01*
X040728D01*
Y021778D01*
X041672D01*
Y022722D01*
X040728D01*
X040728Y022722D01*
Y022722D01*
X040688Y022746D01*
X039963Y02347D01*
X039992Y023513D01*
X039997Y023511D01*
X0401Y023497D01*
X040203Y023511D01*
X040299Y02355D01*
X040381Y023613D01*
X040444Y023696D01*
X040484Y023791D01*
X040497Y023894D01*
Y024406D01*
X040484Y024509D01*
X040444Y024604D01*
X040381Y024687D01*
X040299Y02475D01*
X040203Y024789D01*
X0401Y024803D01*
D02*
G37*
G36*
X030439Y0241D02*
X03015D01*
Y023562D01*
X030188Y023567D01*
X03027Y0236D01*
X03034Y023654D01*
X030394Y023725D01*
X030428Y023806D01*
X030439Y023894D01*
Y0241D01*
D02*
G37*
G36*
X03005D02*
X029761D01*
Y023894D01*
X029772Y023806D01*
X029806Y023725D01*
X02986Y023654D01*
X02993Y0236D01*
X030012Y023567D01*
X03005Y023562D01*
Y0241D01*
D02*
G37*
G36*
X0411Y024803D02*
X040997Y024789D01*
X040901Y02475D01*
X040819Y024687D01*
X040756Y024604D01*
X040716Y024509D01*
X040703Y024406D01*
Y023894D01*
X040716Y023791D01*
X040756Y023696D01*
X040819Y023613D01*
X040901Y02355D01*
X040997Y023511D01*
X0411Y023497D01*
X041203Y023511D01*
X041299Y02355D01*
X041381Y023613D01*
X041444Y023696D01*
X041484Y023791D01*
X041497Y023894D01*
Y024406D01*
X041484Y024509D01*
X041444Y024604D01*
X041381Y024687D01*
X041299Y02475D01*
X041203Y024789D01*
X0411Y024803D01*
D02*
G37*
G36*
X0321D02*
X031997Y024789D01*
X031901Y02475D01*
X031819Y024687D01*
X031756Y024604D01*
X031716Y024509D01*
X031703Y024406D01*
Y023894D01*
X031716Y023791D01*
X031756Y023696D01*
X031819Y023613D01*
X031901Y02355D01*
X031997Y023511D01*
X0321Y023497D01*
X032203Y023511D01*
X032299Y02355D01*
X032381Y023613D01*
X032444Y023696D01*
X032484Y023791D01*
X032497Y023894D01*
Y024406D01*
X032484Y024509D01*
X032444Y024604D01*
X032381Y024687D01*
X032299Y02475D01*
X032203Y024789D01*
X0321Y024803D01*
D02*
G37*
G36*
X0311D02*
X030997Y024789D01*
X030901Y02475D01*
X030819Y024687D01*
X030756Y024604D01*
X030716Y024509D01*
X030703Y024406D01*
Y023894D01*
X030716Y023791D01*
X030756Y023696D01*
X030819Y023613D01*
X030901Y02355D01*
X030997Y023511D01*
X0311Y023497D01*
X031203Y023511D01*
X031299Y02355D01*
X031381Y023613D01*
X031444Y023696D01*
X031484Y023791D01*
X031497Y023894D01*
Y024406D01*
X031484Y024509D01*
X031444Y024604D01*
X031381Y024687D01*
X031299Y02475D01*
X031203Y024789D01*
X0311Y024803D01*
D02*
G37*
G36*
X035303Y0214D02*
X0353D01*
Y02105D01*
X03565D01*
Y021053D01*
X035623Y021154D01*
X03557Y021246D01*
X035496Y02132D01*
X035404Y021373D01*
X035303Y0214D01*
D02*
G37*
G36*
X0352D02*
X035197D01*
X035096Y021373D01*
X035004Y02132D01*
X03493Y021246D01*
X034877Y021154D01*
X03485Y021053D01*
Y02105D01*
X0352D01*
Y0214D01*
D02*
G37*
G36*
X026552Y021245D02*
X02655D01*
Y0209D01*
X026895D01*
Y020902D01*
X026868Y021003D01*
X026816Y021093D01*
X026743Y021166D01*
X026653Y021218D01*
X026552Y021245D01*
D02*
G37*
G36*
X02645D02*
X026448D01*
X026347Y021218D01*
X026257Y021166D01*
X026184Y021093D01*
X026132Y021003D01*
X026105Y020902D01*
Y0209D01*
X02645D01*
Y021245D01*
D02*
G37*
G36*
X03565Y02095D02*
X0353D01*
Y0206D01*
X035303D01*
X035404Y020627D01*
X035496Y02068D01*
X03557Y020754D01*
X035623Y020846D01*
X03565Y020947D01*
Y02095D01*
D02*
G37*
G36*
X0352D02*
X03485D01*
Y020947D01*
X034877Y020846D01*
X03493Y020754D01*
X035004Y02068D01*
X035096Y020627D01*
X035197Y0206D01*
X0352D01*
Y02095D01*
D02*
G37*
G36*
X0341Y024803D02*
X033997Y024789D01*
X033901Y02475D01*
X033819Y024687D01*
X033756Y024604D01*
X033716Y024509D01*
X033703Y024406D01*
Y023894D01*
X033716Y023791D01*
X033756Y023696D01*
X033819Y023613D01*
X033842Y023596D01*
Y021259D01*
X033847Y021218D01*
X033824Y021177D01*
X033793Y02106D01*
Y02094D01*
X033824Y020823D01*
X033884Y020719D01*
X033969Y020634D01*
X034073Y020574D01*
X03419Y020543D01*
X03431D01*
X034427Y020574D01*
X034531Y020634D01*
X034616Y020719D01*
X034676Y020823D01*
X034707Y02094D01*
Y02106D01*
X034676Y021177D01*
X034616Y021281D01*
X034531Y021366D01*
X034427Y021426D01*
X034358Y021445D01*
Y023596D01*
X034381Y023613D01*
X034444Y023696D01*
X034484Y023791D01*
X034497Y023894D01*
Y024406D01*
X034484Y024509D01*
X034444Y024604D01*
X034381Y024687D01*
X034299Y02475D01*
X034203Y024789D01*
X0341Y024803D01*
D02*
G37*
G36*
X0331D02*
X032997Y024789D01*
X032901Y02475D01*
X032819Y024687D01*
X032756Y024604D01*
X032716Y024509D01*
X032703Y024406D01*
Y023894D01*
X032716Y023791D01*
X032756Y023696D01*
X032819Y023613D01*
X032901Y02355D01*
X032992Y023513D01*
Y021379D01*
X032969Y021366D01*
X032884Y021281D01*
X032824Y021177D01*
X032793Y02106D01*
Y02094D01*
X032824Y020823D01*
X032884Y020719D01*
X032969Y020634D01*
X033073Y020574D01*
X03319Y020543D01*
X03331D01*
X033427Y020574D01*
X033531Y020634D01*
X033616Y020719D01*
X033676Y020823D01*
X033707Y02094D01*
Y02106D01*
X033676Y021177D01*
X033616Y021281D01*
X033531Y021366D01*
X033508Y021379D01*
Y02367D01*
X033499Y023736D01*
X03348Y023783D01*
X033484Y023791D01*
X033497Y023894D01*
Y024406D01*
X033484Y024509D01*
X033444Y024604D01*
X033381Y024687D01*
X033299Y02475D01*
X033203Y024789D01*
X0331Y024803D01*
D02*
G37*
G36*
X03231Y021457D02*
X03219D01*
X032073Y021426D01*
X031969Y021366D01*
X031884Y021281D01*
X031824Y021177D01*
X031793Y02106D01*
Y02094D01*
X031824Y020823D01*
X031884Y020719D01*
X031969Y020634D01*
X032073Y020574D01*
X03219Y020543D01*
X03231D01*
X032427Y020574D01*
X032531Y020634D01*
X032616Y020719D01*
X032676Y020823D01*
X032707Y02094D01*
Y02106D01*
X032676Y021177D01*
X032616Y021281D01*
X032531Y021366D01*
X032427Y021426D01*
X03231Y021457D01*
D02*
G37*
G36*
X02645Y0208D02*
X026105D01*
Y020798D01*
X026132Y020697D01*
X026184Y020607D01*
X026257Y020534D01*
X026347Y020482D01*
X026448Y020455D01*
X02645D01*
Y0208D01*
D02*
G37*
G36*
X0229Y019908D02*
Y0196D01*
X023242D01*
X023236Y019643D01*
X0232Y019729D01*
X023143Y019804D01*
X023069Y019861D01*
X022982Y019897D01*
X0229Y019908D01*
D02*
G37*
G36*
X0228D02*
X022718Y019897D01*
X022631Y019861D01*
X022557Y019804D01*
X0225Y019729D01*
X022464Y019643D01*
X022458Y0196D01*
X0228D01*
Y019908D01*
D02*
G37*
G36*
X023242Y0195D02*
X0229D01*
Y019192D01*
X022982Y019203D01*
X023069Y019239D01*
X023143Y019296D01*
X0232Y019371D01*
X023236Y019457D01*
X023242Y0195D01*
D02*
G37*
G36*
X0228D02*
X022458D01*
X022464Y019457D01*
X0225Y019371D01*
X022557Y019296D01*
X022631Y019239D01*
X022718Y019203D01*
X0228Y019192D01*
Y0195D01*
D02*
G37*
G36*
X041262Y018722D02*
X041138D01*
X041018Y01869D01*
X04091Y018628D01*
X040822Y01854D01*
X04076Y018432D01*
X040728Y018312D01*
Y018188D01*
X04076Y018068D01*
X040822Y01796D01*
X04091Y017872D01*
X041018Y01781D01*
X041138Y017778D01*
X041262D01*
X041382Y01781D01*
X04149Y017872D01*
X041578Y01796D01*
X04164Y018068D01*
X041672Y018188D01*
Y018312D01*
X04164Y018432D01*
X041578Y01854D01*
X04149Y018628D01*
X041382Y01869D01*
X041262Y018722D01*
D02*
G37*
G36*
X041255Y017665D02*
X04125D01*
Y0173D01*
X041615D01*
Y017305D01*
X041587Y01741D01*
X041532Y017505D01*
X041455Y017582D01*
X04136Y017637D01*
X041255Y017665D01*
D02*
G37*
G36*
X04115D02*
X041145D01*
X04104Y017637D01*
X040945Y017582D01*
X040868Y017505D01*
X040813Y01741D01*
X040785Y017305D01*
Y0173D01*
X04115D01*
Y017665D01*
D02*
G37*
G36*
X041615Y0172D02*
X04125D01*
Y016835D01*
X041255D01*
X04136Y016863D01*
X041455Y016918D01*
X041532Y016995D01*
X041587Y01709D01*
X041615Y017195D01*
Y0172D01*
D02*
G37*
%LPD*%
D24*
X0291Y02415D02*
D03*
X0301D02*
D03*
X0311D02*
D03*
X0321D02*
D03*
X0331D02*
D03*
X0341D02*
D03*
X0351D02*
D03*
X0361D02*
D03*
X0371D02*
D03*
X0381D02*
D03*
X0391D02*
D03*
X0401D02*
D03*
X0411D02*
D03*
X0421D02*
D03*
X0431D02*
D03*
X0291Y03415D02*
D03*
X0301D02*
D03*
X0311D02*
D03*
X0321D02*
D03*
X0331D02*
D03*
X0341D02*
D03*
X0351D02*
D03*
X0361D02*
D03*
X0371D02*
D03*
X0381D02*
D03*
X0391D02*
D03*
X0401D02*
D03*
X0411D02*
D03*
X0421D02*
D03*
D25*
X0431D02*
D03*
D26*
X02175Y0436D02*
D03*
D27*
X01975D02*
D03*
D28*
X02235Y04035D02*
D03*
X02335D02*
D03*
X0265Y01985D02*
D03*
Y02085D02*
D03*
D29*
X04735Y0246D02*
D03*
X01965Y02965D02*
D03*
X0412Y02225D02*
D03*
D30*
X04735Y0256D02*
D03*
Y0266D02*
D03*
Y0276D02*
D03*
X01965Y02865D02*
D03*
X0412Y01525D02*
D03*
Y01625D02*
D03*
Y01725D02*
D03*
Y01825D02*
D03*
Y01925D02*
D03*
Y02025D02*
D03*
Y02125D02*
D03*
D31*
X04835Y01415D02*
D03*
Y0486D02*
D03*
X0127Y04855D02*
D03*
X0126Y01415D02*
D03*
D32*
X02145Y0325D02*
D03*
X02245D02*
D03*
X02345D02*
D03*
X0145Y03875D02*
D03*
Y03775D02*
D03*
Y03675D02*
D03*
Y03575D02*
D03*
X0172Y03055D02*
D03*
Y02955D02*
D03*
Y02855D02*
D03*
X03465Y0474D02*
D03*
X03165Y0384D02*
D03*
X03265D02*
D03*
X03365D02*
D03*
X03465D02*
D03*
X03365Y0474D02*
D03*
X03265D02*
D03*
X03165D02*
D03*
X03065D02*
D03*
X03225Y021D02*
D03*
X03325D02*
D03*
X03425D02*
D03*
X03525D02*
D03*
X03625D02*
D03*
D33*
X0172Y03155D02*
D03*
X02965Y0474D02*
D03*
X03065Y0384D02*
D03*
D34*
X02285Y01955D02*
D03*
D35*
Y02055D02*
D03*
D36*
X026477Y020827D02*
X0265Y02085D01*
X026327Y020827D02*
X026477D01*
X02285Y01955D02*
X02505D01*
X026327Y020827D01*
X026673Y019873D02*
X0291Y0223D01*
Y02415D01*
X026523Y019873D02*
X026673D01*
X047579Y024679D02*
X0492Y0263D01*
Y0281D01*
X047429Y024679D02*
X047579D01*
X0468Y0305D02*
X0492Y0281D01*
X0339Y0305D02*
X0468D01*
X04735Y0256D02*
X04738Y02563D01*
X04753D01*
X04835Y02645D02*
Y0278D01*
X04753Y02563D02*
X04835Y02645D01*
X0347Y02945D02*
X0467D01*
X04835Y0278D01*
X0145Y03775D02*
X01505D01*
X01255D02*
X0145D01*
X0301Y03785D02*
X03065Y0384D01*
X02975Y0375D02*
X0301Y03785D01*
Y03415D02*
Y03785D01*
X014724Y036726D02*
X018563Y032887D01*
X0145Y03675D02*
X014524Y036726D01*
X014724D01*
X01505Y03775D02*
X0153Y0375D01*
X02975D01*
X03395Y0392D02*
X034626Y038524D01*
X0234Y0392D02*
X03395D01*
X022373Y040227D02*
X0234Y0392D01*
X018463Y032787D02*
X02221Y036535D01*
X019927Y042773D02*
X022373Y040327D01*
Y040227D02*
Y040327D01*
X034626Y038424D02*
X03465Y0384D01*
X034626Y038424D02*
Y038524D01*
X0265Y01985D02*
X026523Y019873D01*
X04565Y0229D02*
X047429Y024679D01*
X0213Y01985D02*
X0216Y01955D01*
X01425Y0269D02*
X0213Y01985D01*
X02145Y032465D02*
Y0325D01*
X0213Y032315D02*
X02145Y032465D01*
X0213Y01985D02*
Y032315D01*
X0172Y02855D02*
X019507D01*
X019607Y02865D01*
X01965D01*
X018463Y031954D02*
Y032787D01*
X01965Y02965D02*
Y030767D01*
X018463Y031954D02*
X01965Y030767D01*
X016923Y032524D02*
X0172Y032247D01*
Y03155D02*
Y032247D01*
X015626Y032524D02*
X016923D01*
X01425Y03005D02*
X01575Y03155D01*
X0172D01*
X0118Y03635D02*
X015626Y032524D01*
X01425Y0269D02*
Y03005D01*
X02221Y036535D02*
X027165D01*
X04565Y0175D02*
Y0229D01*
X0434Y01525D02*
X04565Y0175D01*
X0412Y01525D02*
X0434D01*
X04702Y02557D02*
X04732D01*
X04475Y0233D02*
X04702Y02557D01*
X04475Y01795D02*
Y0233D01*
X0412Y01725D02*
X04405D01*
X04475Y01795D01*
X03625Y0184D02*
X0394Y01525D01*
X0412D01*
X02345Y030056D02*
Y0325D01*
Y021111D02*
Y030056D01*
X022909Y02057D02*
X02345Y021111D01*
X02285Y02055D02*
X02287Y02057D01*
X022909D01*
X02345Y030056D02*
X0291Y024406D01*
X019573Y043423D02*
X01975Y0436D01*
X0145Y03875D02*
X019173Y043423D01*
X019573D01*
X0118Y0385D02*
Y0398D01*
Y03635D02*
Y0385D01*
X01255Y03775D01*
X0118Y0398D02*
X01755Y04555D01*
X0291Y02415D02*
Y024406D01*
X0198Y04555D02*
X02175Y0436D01*
X01755Y04555D02*
X0198D01*
X0301Y02415D02*
Y02485D01*
Y01455D02*
Y02415D01*
Y02485D02*
X0347Y02945D01*
X02175Y0436D02*
X02335Y042D01*
Y04035D02*
Y042D01*
X0352Y02086D02*
X035226Y020885D01*
X033Y0138D02*
X0352Y016D01*
X035226Y020885D02*
Y020941D01*
X0352Y016D02*
Y02086D01*
X03625Y0184D02*
Y021D01*
X03085Y0138D02*
X033D01*
X0277D02*
X03085D01*
X0301Y01455D02*
X03085Y0138D01*
X02285Y01865D02*
X0277Y0138D01*
X02285Y01865D02*
Y01955D01*
X0216D02*
X02285D01*
X0291Y0257D02*
X0339Y0305D01*
X0291Y024406D02*
Y0257D01*
Y03415D02*
Y0346D01*
X027165Y036535D02*
X0291Y0346D01*
X019927Y042773D02*
Y043423D01*
X01975Y0436D02*
X019927Y043423D01*
D37*
X04535Y0276D02*
X04735D01*
X0421Y02435D02*
X04535Y0276D01*
X0421Y02415D02*
Y02435D01*
X0361Y02395D02*
Y02415D01*
Y02395D02*
X040717Y019333D01*
X041117D01*
X0412Y01925D01*
X0431Y02415D02*
Y024406D01*
X045294Y0266D02*
X04735D01*
X0431Y024406D02*
X045294Y0266D01*
X0375Y01995D02*
X0412Y01625D01*
X0375Y01995D02*
Y02163D01*
X035347Y023783D02*
X0375Y02163D01*
X039227Y023841D02*
X040705Y022364D01*
X039227Y023841D02*
X039227D01*
X041086Y022364D02*
X0412Y02225D01*
X040705Y022364D02*
X041086D01*
X0391Y023969D02*
X039227Y023841D01*
X041156Y021294D02*
X0412Y02125D01*
X0381Y023969D02*
X040775Y021294D01*
X041156D01*
X037227Y023841D02*
X037227D01*
X041156Y020294D02*
X0412Y02025D01*
X037227Y023841D02*
X040775Y020294D01*
X041156D01*
X0371Y023969D02*
X037227Y023841D01*
X0391Y023969D02*
Y02415D01*
X0381Y023969D02*
Y02415D01*
X0371Y023969D02*
Y02415D01*
X0351Y023969D02*
Y02415D01*
X035285Y023783D02*
X035347D01*
X0351Y023969D02*
X035285Y023783D01*
X02245Y0325D02*
X02315Y0332D01*
X03045D02*
X0311Y03385D01*
X02315Y0332D02*
X03045D01*
X0351Y03415D02*
Y034406D01*
X03265Y036856D02*
Y0384D01*
Y036856D02*
X0351Y034406D01*
X03165Y036856D02*
X0341Y034406D01*
Y03415D02*
Y034406D01*
X03165Y036856D02*
Y0384D01*
X0341Y021259D02*
X03425Y021109D01*
X0341Y021259D02*
Y02415D01*
X03425Y021D02*
Y021109D01*
X0331Y02382D02*
X03325Y02367D01*
X0331Y02382D02*
Y02415D01*
X03325Y021D02*
Y02367D01*
X0311Y03385D02*
Y03415D01*
M02*
