M48
;Layer_Color=9474304
;FILE_FORMAT=2:4
INCH,LZ
;TYPE=PLATED
T1F00S00C0.0236
T2F00S00C0.0276
T3F00S00C0.0315
T4F00S00C0.0354
T5F00S00C0.0400
T6F00S00C0.0433
T7F00S00C0.1260
%
T01
X0321Y02415
X0331
X0341
X0351
X0361
X0371
X0381
X0391
X0401
X0411
X0421
X0431
X0311
X0301
X0291
Y03415
X0301
X0311
X0321
X0331
X0341
X0351
X0361
X0371
X0381
X0391
X0401
X0411
X0421
X0431
T02
X0265Y01985
Y02085
X02335Y04035
X02235
T03
X02285Y01955
Y02055
T04
X01975Y0436
X02175
T05
X03225Y021
X03325
X03425
X03525
X03625
X0172Y02855
Y02955
Y03055
X0145Y03575
Y03675
Y03775
Y03875
X0172Y03155
X02145Y0325
X02245
X02345
X03065Y0384
X03165
X03265
X03365
X03465
Y0474
X03365
X03265
X03165
X03065
X02965
T06
X0412Y01525
X04735Y0246
Y0256
Y0266
Y0276
X0412Y02225
Y02125
Y02025
Y01925
Y01825
Y01725
Y01625
X01965Y02865
Y02965
T07
X0126Y01415
X04835
Y0486
X0127Y04855
M30
