G04*
G04 #@! TF.GenerationSoftware,Altium Limited,Altium Designer,21.3.2 (30)*
G04*
G04 Layer_Color=8388736*
%FSTAX24Y24*%
%MOIN*%
G70*
G04*
G04 #@! TF.SameCoordinates,A225907D-E06C-499E-90B6-DC43991B6CC8*
G04*
G04*
G04 #@! TF.FilePolarity,Negative*
G04*
G01*
G75*
%ADD12O,0.0552X0.1064*%
%ADD13R,0.0552X0.1064*%
%ADD14C,0.0907*%
%ADD15R,0.0907X0.0907*%
%ADD16C,0.0671*%
%ADD17R,0.0710X0.0710*%
%ADD18C,0.0710*%
%ADD19C,0.2245*%
%ADD20C,0.0680*%
%ADD21R,0.0680X0.0680*%
%ADD22O,0.0671X0.0592*%
%ADD23R,0.0671X0.0592*%
D12*
X0291Y02415D02*
D03*
X0301D02*
D03*
X0311D02*
D03*
X0321D02*
D03*
X0331D02*
D03*
X0341D02*
D03*
X0351D02*
D03*
X0361D02*
D03*
X0371D02*
D03*
X0381D02*
D03*
X0391D02*
D03*
X0401D02*
D03*
X0411D02*
D03*
X0421D02*
D03*
X0431D02*
D03*
X0291Y03415D02*
D03*
X0301D02*
D03*
X0311D02*
D03*
X0321D02*
D03*
X0331D02*
D03*
X0341D02*
D03*
X0351D02*
D03*
X0361D02*
D03*
X0371D02*
D03*
X0381D02*
D03*
X0391D02*
D03*
X0401D02*
D03*
X0411D02*
D03*
X0421D02*
D03*
D13*
X0431D02*
D03*
D14*
X02175Y0436D02*
D03*
D15*
X01975D02*
D03*
D16*
X02235Y04035D02*
D03*
X02335D02*
D03*
X0265Y01985D02*
D03*
Y02085D02*
D03*
D17*
X04735Y0246D02*
D03*
X01965Y02965D02*
D03*
X0412Y02225D02*
D03*
D18*
X04735Y0256D02*
D03*
Y0266D02*
D03*
Y0276D02*
D03*
X01965Y02865D02*
D03*
X0412Y01525D02*
D03*
Y01625D02*
D03*
Y01725D02*
D03*
Y01825D02*
D03*
Y01925D02*
D03*
Y02025D02*
D03*
Y02125D02*
D03*
D19*
X04835Y01415D02*
D03*
Y0486D02*
D03*
X0127Y04855D02*
D03*
X0126Y01415D02*
D03*
D20*
X02145Y0325D02*
D03*
X02245D02*
D03*
X02345D02*
D03*
X0145Y03875D02*
D03*
Y03775D02*
D03*
Y03675D02*
D03*
Y03575D02*
D03*
X0172Y03055D02*
D03*
Y02955D02*
D03*
Y02855D02*
D03*
X03465Y0474D02*
D03*
X03165Y0384D02*
D03*
X03265D02*
D03*
X03365D02*
D03*
X03465D02*
D03*
X03365Y0474D02*
D03*
X03265D02*
D03*
X03165D02*
D03*
X03065D02*
D03*
X03225Y021D02*
D03*
X03325D02*
D03*
X03425D02*
D03*
X03525D02*
D03*
X03625D02*
D03*
D21*
X0172Y03155D02*
D03*
X02965Y0474D02*
D03*
X03065Y0384D02*
D03*
D22*
X02285Y01955D02*
D03*
D23*
Y02055D02*
D03*
M02*
