G04*
G04 #@! TF.GenerationSoftware,Altium Limited,Altium Designer,21.3.2 (30)*
G04*
G04 Layer_Color=128*
%FSTAX24Y24*%
%MOIN*%
G70*
G04*
G04 #@! TF.SameCoordinates,A225907D-E06C-499E-90B6-DC43991B6CC8*
G04*
G04*
G04 #@! TF.FilePolarity,Positive*
G04*
G01*
G75*
%ADD38C,0.0020*%
D38*
X028982Y02415D02*
X029218D01*
X0291Y024032D02*
Y024268D01*
X029982Y02415D02*
X030218D01*
X0301Y024032D02*
Y024268D01*
X030982Y02415D02*
X031218D01*
X0311Y024032D02*
Y024268D01*
X031982Y02415D02*
X032218D01*
X0321Y024032D02*
Y024268D01*
X032982Y02415D02*
X033218D01*
X0331Y024032D02*
Y024268D01*
X033982Y02415D02*
X034218D01*
X0341Y024032D02*
Y024268D01*
X034982Y02415D02*
X035218D01*
X0351Y024032D02*
Y024268D01*
X035982Y02415D02*
X036218D01*
X0361Y024032D02*
Y024268D01*
X036982Y02415D02*
X037218D01*
X0371Y024032D02*
Y024268D01*
X037982Y02415D02*
X038218D01*
X0381Y024032D02*
Y024268D01*
X038982Y02415D02*
X039218D01*
X0391Y024032D02*
Y024268D01*
X039982Y02415D02*
X040218D01*
X0401Y024032D02*
Y024268D01*
X040982Y02415D02*
X041218D01*
X0411Y024032D02*
Y024268D01*
X041982Y02415D02*
X042218D01*
X0421Y024032D02*
Y024268D01*
X042982Y02415D02*
X043218D01*
X0431Y024032D02*
Y024268D01*
X028982Y03415D02*
X029218D01*
X0291Y034032D02*
Y034268D01*
X029982Y03415D02*
X030218D01*
X0301Y034032D02*
Y034268D01*
X030982Y03415D02*
X031218D01*
X0311Y034032D02*
Y034268D01*
X031982Y03415D02*
X032218D01*
X0321Y034032D02*
Y034268D01*
X032982Y03415D02*
X033218D01*
X0331Y034032D02*
Y034268D01*
X033982Y03415D02*
X034218D01*
X0341Y034032D02*
Y034268D01*
X034982Y03415D02*
X035218D01*
X0351Y034032D02*
Y034268D01*
X035982Y03415D02*
X036218D01*
X0361Y034032D02*
Y034268D01*
X036982Y03415D02*
X037218D01*
X0371Y034032D02*
Y034268D01*
X037982Y03415D02*
X038218D01*
X0381Y034032D02*
Y034268D01*
X038982Y03415D02*
X039218D01*
X0391Y034032D02*
Y034268D01*
X039982Y03415D02*
X040218D01*
X0401Y034032D02*
Y034268D01*
X040982Y03415D02*
X041218D01*
X0411Y034032D02*
Y034268D01*
X041982Y03415D02*
X042218D01*
X0421Y034032D02*
Y034268D01*
X042982Y03415D02*
X043218D01*
X0431Y034032D02*
Y034268D01*
X021573Y0436D02*
X021927D01*
X02175Y043423D02*
Y043777D01*
X019573Y0436D02*
X019927D01*
X01975Y043423D02*
Y043777D01*
X022212Y04035D02*
X022488D01*
X02235Y040212D02*
Y040488D01*
X023212Y04035D02*
X023488D01*
X02335Y040212D02*
Y040488D01*
X047133Y0246D02*
X047567D01*
X04735Y024383D02*
Y024817D01*
X047133Y0256D02*
X047567D01*
X04735Y025383D02*
Y025817D01*
X047133Y0266D02*
X047567D01*
X04735Y026383D02*
Y026817D01*
X047133Y0276D02*
X047567D01*
X04735Y027383D02*
Y027817D01*
X04772Y01415D02*
X04898D01*
X04835Y01352D02*
Y01478D01*
X04772Y0486D02*
X04898D01*
X04835Y04797D02*
Y04923D01*
X01207Y04855D02*
X01333D01*
X0127Y04792D02*
Y04918D01*
X01197Y01415D02*
X01323D01*
X0126Y01352D02*
Y01478D01*
X02125Y0325D02*
X02165D01*
X02145Y0323D02*
Y0327D01*
X02225Y0325D02*
X02265D01*
X02245Y0323D02*
Y0327D01*
X02325Y0325D02*
X02365D01*
X02345Y0323D02*
Y0327D01*
X0143Y03875D02*
X0147D01*
X0145Y03855D02*
Y03895D01*
X0143Y03775D02*
X0147D01*
X0145Y03755D02*
Y03795D01*
X0143Y03675D02*
X0147D01*
X0145Y03655D02*
Y03695D01*
X0143Y03575D02*
X0147D01*
X0145Y03555D02*
Y03595D01*
X019433Y02865D02*
X019867D01*
X01965Y028433D02*
Y028867D01*
X019433Y02965D02*
X019867D01*
X01965Y029433D02*
Y029867D01*
X040983Y01525D02*
X041417D01*
X0412Y015033D02*
Y015467D01*
X040983Y01625D02*
X041417D01*
X0412Y016033D02*
Y016467D01*
X040983Y01725D02*
X041417D01*
X0412Y017033D02*
Y017467D01*
X040983Y01825D02*
X041417D01*
X0412Y018033D02*
Y018467D01*
X040983Y01925D02*
X041417D01*
X0412Y019033D02*
Y019467D01*
X040983Y02025D02*
X041417D01*
X0412Y020033D02*
Y020467D01*
X040983Y02125D02*
X041417D01*
X0412Y021033D02*
Y021467D01*
X040983Y02225D02*
X041417D01*
X0412Y022033D02*
Y022467D01*
X017Y03155D02*
X0174D01*
X0172Y03135D02*
Y03175D01*
X017Y03055D02*
X0174D01*
X0172Y03035D02*
Y03075D01*
X017Y02955D02*
X0174D01*
X0172Y02935D02*
Y02975D01*
X017Y02855D02*
X0174D01*
X0172Y02835D02*
Y02875D01*
X03445Y0474D02*
X03485D01*
X03465Y0472D02*
Y0476D01*
X02945Y0474D02*
X02985D01*
X02965Y0472D02*
Y0476D01*
X03045Y0384D02*
X03085D01*
X03065Y0382D02*
Y0386D01*
X03145Y0384D02*
X03185D01*
X03165Y0382D02*
Y0386D01*
X03245Y0384D02*
X03285D01*
X03265Y0382D02*
Y0386D01*
X03345Y0384D02*
X03385D01*
X03365Y0382D02*
Y0386D01*
X03445Y0384D02*
X03485D01*
X03465Y0382D02*
Y0386D01*
X03345Y0474D02*
X03385D01*
X03365Y0472D02*
Y0476D01*
X03245Y0474D02*
X03285D01*
X03265Y0472D02*
Y0476D01*
X03145Y0474D02*
X03185D01*
X03165Y0472D02*
Y0476D01*
X03045Y0474D02*
X03085D01*
X03065Y0472D02*
Y0476D01*
X03205Y021D02*
X03245D01*
X03225Y0208D02*
Y0212D01*
X03305Y021D02*
X03345D01*
X03325Y0208D02*
Y0212D01*
X03405Y021D02*
X03445D01*
X03425Y0208D02*
Y0212D01*
X03505Y021D02*
X03545D01*
X03525Y0208D02*
Y0212D01*
X03605Y021D02*
X03645D01*
X03625Y0208D02*
Y0212D01*
X022693Y01955D02*
X023007D01*
X02285Y019393D02*
Y019707D01*
X022693Y02055D02*
X023007D01*
X02285Y020393D02*
Y020707D01*
X026362Y01985D02*
X026638D01*
X0265Y019712D02*
Y019988D01*
X026362Y02085D02*
X026638D01*
X0265Y020712D02*
Y020988D01*
M02*
