G04*
G04 #@! TF.GenerationSoftware,Altium Limited,Altium Designer,21.3.2 (30)*
G04*
G04 Layer_Color=65535*
%FSTAX24Y24*%
%MOIN*%
G70*
G04*
G04 #@! TF.SameCoordinates,A225907D-E06C-499E-90B6-DC43991B6CC8*
G04*
G04*
G04 #@! TF.FilePolarity,Positive*
G04*
G01*
G75*
%ADD10C,0.0100*%
%ADD11C,0.0079*%
D10*
X022164Y044925D02*
G03*
X022177Y044911I-001417J-001333D01*
G01*
X022354Y040726D02*
G03*
X02236Y039974I-000004J-000376D01*
G01*
X023356Y039974D02*
G03*
X02335Y040726I000004J000376D01*
G01*
X02384Y02005D02*
G03*
X02384Y02005I-00099J0D01*
G01*
X026124Y019854D02*
G03*
X026876Y01986I000376J-000004D01*
G01*
X026876Y020856D02*
G03*
X026124Y02085I-000376J000004D01*
G01*
X0214Y04175D02*
X02255Y0429D01*
X02085Y04165D02*
X02265Y04345D01*
X02075Y04165D02*
X02085D01*
X02075Y042D02*
X02265Y0439D01*
X02075Y04245D02*
X02255Y04425D01*
X02075Y0423D02*
Y04245D01*
Y0429D02*
X0224Y04455D01*
X02075Y04285D02*
Y0429D01*
Y04335D02*
X0222Y0448D01*
X02075Y04315D02*
Y04335D01*
Y04375D02*
X022Y045D01*
X02075Y0437D02*
Y04375D01*
Y04415D02*
X0218Y0452D01*
X02075Y04455D02*
X02155Y04535D01*
X02075Y04435D02*
Y04455D01*
Y045D02*
X0212Y04545D01*
X02075Y04475D02*
Y045D01*
Y04165D02*
Y0455D01*
X02238Y04073D02*
X02334D01*
X02235Y03997D02*
X02335D01*
X02045Y0315D02*
X02345D01*
X02445D01*
Y0335D01*
X02045D02*
X02445D01*
X02045Y0315D02*
Y0335D01*
X014Y035D02*
Y0395D01*
Y035D02*
X0225D01*
Y0395D01*
X014D02*
X0225D01*
X01145Y02755D02*
X0182D01*
Y03255D01*
X01145D02*
X0182D01*
X01145Y02755D02*
Y03255D01*
X03803Y03777D02*
Y0484D01*
X0274D02*
X03803D01*
X0274Y03777D02*
Y0484D01*
Y03777D02*
X03803D01*
X03075Y01425D02*
Y016125D01*
Y019875D02*
Y02175D01*
Y01425D02*
X03725D01*
X03075Y016125D02*
Y019875D01*
X03725Y01425D02*
Y02175D01*
X03075D02*
X03725D01*
X02189Y01979D02*
X02257Y01911D01*
X02189Y01979D02*
Y01987D01*
X02192Y02005D02*
X02291Y01906D01*
X02225Y02005D02*
X02318Y01912D01*
X02224Y02005D02*
X02225D01*
X0226D02*
X02339Y01926D01*
X02256Y02005D02*
X0226D01*
X02293D02*
X02358Y0194D01*
X02324Y02005D02*
X0237Y01959D01*
X02323Y02005D02*
X02324D01*
X02354D02*
X02378Y01981D01*
X02337Y02005D02*
X02354D01*
X02337D02*
X02353D01*
X02187D02*
X02384D01*
X02612Y01988D02*
Y02084D01*
X02688Y01985D02*
Y02085D01*
X02515Y044349D02*
Y043949D01*
Y044149D01*
X02455D01*
X02495Y043749D02*
X02465D01*
X02455Y043649D01*
Y04335D01*
X02495D01*
X02435Y04235D02*
Y04225D01*
X02445Y04215D01*
X02495D01*
Y04245D01*
X02485Y04255D01*
X02465D01*
X02455Y04245D01*
Y04215D01*
Y04185D02*
Y04165D01*
X02465Y04155D01*
X02485D01*
X02495Y04165D01*
Y04185D01*
X02485Y04195D01*
X02465D01*
X02455Y04185D01*
Y04135D02*
X02495D01*
Y04125D01*
X02485Y04115D01*
X02455D01*
X02485D01*
X02495Y04105D01*
X02485Y04095D01*
X02455D01*
Y039751D02*
Y040151D01*
X02495Y039751D01*
X02505D01*
X02515Y039851D01*
Y040051D01*
X02505Y040151D01*
X0278Y0487D02*
Y0493D01*
X028Y0491D01*
X0282Y0493D01*
Y0487D01*
X0287Y0493D02*
X0285D01*
X0284Y0492D01*
Y0488D01*
X0285Y0487D01*
X0287D01*
X0288Y0488D01*
Y0492D01*
X0287Y0493D01*
X029D02*
Y0487D01*
X0293D01*
X029399Y0488D01*
Y0492D01*
X0293Y0493D01*
X029D01*
X029599D02*
Y0488D01*
X029699Y0487D01*
X029899D01*
X029999Y0488D01*
Y0493D01*
X030199D02*
Y0487D01*
X030599D01*
X031199Y0493D02*
X030799D01*
Y0487D01*
X031199D01*
X030799Y049D02*
X030999D01*
X032399Y0492D02*
X032299Y0493D01*
X032099D01*
X031999Y0492D01*
Y0491D01*
X032099Y049D01*
X032299D01*
X032399Y0489D01*
Y0488D01*
X032299Y0487D01*
X032099D01*
X031999Y0488D01*
X032598Y0493D02*
X032798D01*
X032698D01*
Y0487D01*
X032598D01*
X032798D01*
X033098D02*
Y0493D01*
X033298Y0491D01*
X033498Y0493D01*
Y0487D01*
X034298D02*
Y0491D01*
X034498Y0493D01*
X034698Y0491D01*
Y0487D01*
Y049D01*
X034298D01*
X034898Y0493D02*
X035298D01*
Y0492D01*
X034898Y0488D01*
Y0487D01*
X035897Y0493D02*
X035697Y0492D01*
X035498Y049D01*
Y0488D01*
X035597Y0487D01*
X035797D01*
X035897Y0488D01*
Y0489D01*
X035797Y049D01*
X035498D01*
X036097Y0492D02*
X036197Y0493D01*
X036397D01*
X036497Y0492D01*
Y0491D01*
X036397Y049D01*
X036497Y0489D01*
Y0488D01*
X036397Y0487D01*
X036197D01*
X036097Y0488D01*
Y0489D01*
X036197Y049D01*
X036097Y0491D01*
Y0492D01*
X036197Y049D02*
X036397D01*
X036697Y0492D02*
X036797Y0493D01*
X036997D01*
X037097Y0492D01*
Y0488D01*
X036997Y0487D01*
X036797D01*
X036697Y0488D01*
Y0492D01*
X037697D02*
X037597Y0493D01*
X037397D01*
X037297Y0492D01*
Y0488D01*
X037397Y0487D01*
X037597D01*
X037697Y0488D01*
X0209Y03435D02*
X0208Y03445D01*
X0206D01*
X0205Y03435D01*
Y03395D01*
X0206Y03385D01*
X0208D01*
X0209Y03395D01*
X0212Y03385D02*
X0214D01*
X0215Y03395D01*
Y03415D01*
X0214Y03425D01*
X0212D01*
X0211Y03415D01*
Y03395D01*
X0212Y03385D01*
X0217D02*
X0219D01*
X0218D01*
Y03425D01*
X0217D01*
X01405Y04005D02*
Y04065D01*
X01425Y04045D01*
X01445Y04065D01*
Y04005D01*
X01475Y04045D02*
X01495D01*
X01505Y04035D01*
Y04005D01*
X01475D01*
X01465Y04015D01*
X01475Y04025D01*
X01505D01*
X015649Y04045D02*
X01535D01*
X01525Y04035D01*
Y04015D01*
X01535Y04005D01*
X015649D01*
X015849Y04065D02*
Y04005D01*
Y04035D01*
X015949Y04045D01*
X016149D01*
X016249Y04035D01*
Y04005D01*
X017049Y04065D02*
Y04005D01*
Y04035D01*
X017149Y04045D01*
X017349D01*
X017449Y04035D01*
Y04005D01*
X017749Y04045D02*
X017949D01*
X018049Y04035D01*
Y04005D01*
X017749D01*
X017649Y04015D01*
X017749Y04025D01*
X018049D01*
X018948Y04045D02*
X019148D01*
X019248Y04035D01*
Y04005D01*
X018948D01*
X018848Y04015D01*
X018948Y04025D01*
X019248D01*
X019448Y03985D02*
Y04045D01*
X019748D01*
X019848Y04035D01*
Y04015D01*
X019748Y04005D01*
X019448D01*
X0426Y0198D02*
X042D01*
Y0201D01*
X0421Y0202D01*
X0423D01*
X0424Y0201D01*
Y0198D01*
Y02D02*
X0426Y0202D01*
X042Y0208D02*
Y0204D01*
X0423D01*
Y0206D01*
Y0204D01*
X0426D01*
X042Y021D02*
Y0212D01*
Y0211D01*
X0426D01*
Y021D01*
Y0212D01*
X042Y0215D02*
X0426D01*
Y0218D01*
X0425Y0219D01*
X0421D01*
X042Y0218D01*
Y0215D01*
X047Y02175D02*
Y02155D01*
X0471Y02145D01*
X0475D01*
X0476Y02155D01*
Y02175D01*
X0475Y02185D01*
X0471D01*
X047Y02175D01*
Y02205D02*
X0476D01*
Y02245D01*
X047Y02305D02*
Y02265D01*
X0476D01*
Y02305D01*
X0473Y02265D02*
Y02285D01*
X047Y02325D02*
X0476D01*
Y02355D01*
X0475Y02365D01*
X0471D01*
X047Y02355D01*
Y02325D01*
X0115Y0337D02*
X0119D01*
X0117D01*
Y0331D01*
X0121Y0335D02*
Y0332D01*
X0122Y0331D01*
X0125D01*
Y033D01*
X0124Y0329D01*
X0123D01*
X0125Y0331D02*
Y0335D01*
X0127Y0329D02*
Y0335D01*
X013D01*
X013099Y0334D01*
Y0332D01*
X013Y0331D01*
X0127D01*
X013599D02*
X013399D01*
X013299Y0332D01*
Y0334D01*
X013399Y0335D01*
X013599D01*
X013699Y0334D01*
Y0333D01*
X013299D01*
X014899Y0336D02*
X014799Y0337D01*
X014599D01*
X014499Y0336D01*
Y0332D01*
X014599Y0331D01*
X014799D01*
X014899Y0332D01*
X0312Y0226D02*
X0311Y0227D01*
X0309D01*
X0308Y0226D01*
Y0222D01*
X0309Y0221D01*
X0311D01*
X0312Y0222D01*
Y0224D01*
X031D01*
X0314Y0221D02*
Y0227D01*
X0317D01*
X0318Y0226D01*
Y0224D01*
X0317Y0223D01*
X0314D01*
X032399Y0226D02*
X0323Y0227D01*
X0321D01*
X032Y0226D01*
Y0225D01*
X0321Y0224D01*
X0323D01*
X032399Y0223D01*
Y0222D01*
X0323Y0221D01*
X0321D01*
X032Y0222D01*
X0426Y03585D02*
X0422D01*
Y03525D01*
X0426D01*
X0422Y03555D02*
X0424D01*
X0432Y03575D02*
X0431Y03585D01*
X0429D01*
X0428Y03575D01*
Y03565D01*
X0429Y03555D01*
X0431D01*
X0432Y03545D01*
Y03535D01*
X0431Y03525D01*
X0429D01*
X0428Y03535D01*
X0434Y03525D02*
Y03585D01*
X0437D01*
X0438Y03575D01*
Y03555D01*
X0437Y03545D01*
X0434D01*
X044Y03575D02*
X0441Y03585D01*
X0443D01*
X0444Y03575D01*
Y03565D01*
X0443Y03555D01*
X0442D01*
X0443D01*
X0444Y03545D01*
Y03535D01*
X0443Y03525D01*
X0441D01*
X044Y03535D01*
X045Y03525D02*
X0446D01*
X045Y03565D01*
Y03575D01*
X0449Y03585D01*
X0447D01*
X0446Y03575D01*
X018701Y04675D02*
X019101D01*
X018901D01*
Y04615D01*
X019301Y04655D02*
Y04625D01*
X019401Y04615D01*
X019701D01*
Y04655D01*
X020501Y04675D02*
Y04615D01*
Y04645D01*
X020601Y04655D01*
X020801D01*
X0209Y04645D01*
Y04615D01*
X0212D02*
X0214D01*
X0215Y04625D01*
Y04645D01*
X0214Y04655D01*
X0212D01*
X0211Y04645D01*
Y04625D01*
X0212Y04615D01*
X0218Y04655D02*
X022D01*
X0221Y04645D01*
Y04615D01*
X0218D01*
X0217Y04625D01*
X0218Y04635D01*
X0221D01*
X0229Y04615D02*
X0231D01*
X023D01*
Y04675D01*
X0229Y04665D01*
X0234D02*
X0235Y04675D01*
X0237D01*
X0238Y04665D01*
Y04625D01*
X0237Y04615D01*
X0235D01*
X0234Y04625D01*
Y04665D01*
X024D02*
X024099Y04675D01*
X024299D01*
X024399Y04665D01*
Y04625D01*
X024299Y04615D01*
X024099D01*
X024Y04625D01*
Y04665D01*
X024599D02*
X024699Y04675D01*
X024899D01*
X024999Y04665D01*
Y04625D01*
X024899Y04615D01*
X024699D01*
X024599Y04625D01*
Y04665D01*
X025199Y04655D02*
Y04625D01*
X025299Y04615D01*
X025599D01*
Y04655D01*
X026199Y04675D02*
X025799D01*
Y04645D01*
X025999D01*
X025799D01*
Y04615D01*
D11*
X0251Y0348D02*
X0452Y0348D01*
X0251Y02355D02*
Y0348D01*
Y02355D02*
X0452Y02355D01*
Y0289D01*
Y0348D01*
X04685Y0281D02*
X04785D01*
Y0241D02*
Y0281D01*
X04685Y0241D02*
Y0281D01*
Y0241D02*
X04785D01*
X04685Y0251D02*
X04785D01*
X02015Y02815D02*
Y03015D01*
X01915D02*
X02015D01*
X01915Y02815D02*
Y03015D01*
Y02815D02*
X02015D01*
X0417Y01475D02*
Y02275D01*
X0407D02*
X0417D01*
X0407Y01475D02*
Y02275D01*
Y01475D02*
X0417D01*
X0407Y02175D02*
X0417D01*
X020306Y027636D02*
X020241Y02757D01*
X020241Y027439D01*
X020307Y027374D01*
X020569Y027374D01*
X020635Y02744D01*
X020634Y027571D01*
X020569Y027637D01*
X020634Y027834D02*
X020633Y027965D01*
X020568Y02803D01*
X020436Y02803D01*
X020371Y027964D01*
X020371Y027833D01*
X020437Y027768D01*
X020568Y027768D01*
X020634Y027834D01*
X020633Y028162D02*
X020371Y028161D01*
X02037Y028358D01*
X020435Y028423D01*
X020632Y028424D01*
X020763Y028687D02*
X020763Y028752D01*
X020697Y028818D01*
X020369Y028817D01*
X020369Y02862D01*
X020435Y028555D01*
X020566Y028555D01*
X020632Y028621D01*
X020631Y028818D01*
X020302Y029407D02*
X020367Y029407D01*
X020368Y029342D01*
X020367Y029473D01*
X020367Y029407D01*
X020564Y029408D01*
X02063Y029473D01*
X020367Y029735D02*
X020366Y029866D01*
X020432Y029932D01*
X020628Y029933D01*
X020629Y029736D01*
X020564Y02967D01*
X020498Y029736D01*
X020497Y029932D01*
X020365Y030326D02*
X020366Y030129D01*
X020431Y030063D01*
X020563Y030064D01*
X020628Y030129D01*
X020627Y030326D01*
X018201Y018497D02*
X018463D01*
X018332D01*
Y018103D01*
X018595Y018366D02*
Y018169D01*
X01866Y018103D01*
X018857D01*
Y018366D01*
X019382Y018497D02*
Y018103D01*
Y0183D01*
X019447Y018366D01*
X019578D01*
X019644Y0183D01*
Y018103D01*
X019841D02*
X019972D01*
X020038Y018169D01*
Y0183D01*
X019972Y018366D01*
X019841D01*
X019775Y0183D01*
Y018169D01*
X019841Y018103D01*
X020234Y018366D02*
X020366D01*
X020431Y0183D01*
Y018103D01*
X020234D01*
X020169Y018169D01*
X020234Y018234D01*
X020431D01*
X021153Y018103D02*
Y018497D01*
X020956Y0183D01*
X021218D01*
X02135Y018497D02*
X021612D01*
Y018431D01*
X02135Y018169D01*
Y018103D01*
X021743Y018366D02*
Y018169D01*
X021809Y018103D01*
X022005D01*
Y018366D01*
X022399Y018497D02*
X022137D01*
Y0183D01*
X022268D01*
X022137D01*
Y018103D01*
X025207Y018812D02*
X025469D01*
X025338D01*
Y018419D01*
X0256Y018681D02*
Y018484D01*
X025666Y018419D01*
X025863D01*
Y018681D01*
X026519Y018288D02*
X026584D01*
X02665Y018353D01*
Y018681D01*
X026453D01*
X026388Y018616D01*
Y018484D01*
X026453Y018419D01*
X02665D01*
X026847D02*
X026978D01*
X027044Y018484D01*
Y018616D01*
X026978Y018681D01*
X026847D01*
X026781Y018616D01*
Y018484D01*
X026847Y018419D01*
X027175D02*
Y018681D01*
X02724D01*
X027306Y018616D01*
Y018419D01*
Y018616D01*
X027372Y018681D01*
X027437Y018616D01*
Y018419D01*
X027962D02*
X028093D01*
X028028D01*
Y018812D01*
X027962Y018747D01*
M02*
